<svg width="171" height="50" viewBox="0 0 171 50" fill="none" xmlns="http://www.w3.org/2000/svg">
<path d="M34.2519 37.6559L35.0698 33.3552C35.0698 33.3552 22.6123 31.2557 22.8748 20.1545C23.0646 12.1274 32.8581 7.78809 39.5372 9.86681C52.9479 14.0406 51.0478 28.424 40.7085 34.4609C37.6275 36.602 34.2519 37.6559 34.2519 37.6559Z" fill="white"/>
<path fill-rule="evenodd" clip-rule="evenodd" d="M23.438 15.7967C21.7638 15.5462 19.8828 15.6032 17.8046 16.0354C10.961 17.4589 4.41088 26.031 8.03084 33.1696C13.0372 43.0423 24.9631 38.8269 24.9631 38.8269L26.2738 43C26.2738 43 28.7399 40.4331 30.4345 37.0552C31.2275 35.7403 31.8365 34.3732 32.2673 32.9944C28.731 31.8388 21.97 28.552 22.1641 20.3433C22.204 18.6564 22.668 17.1325 23.438 15.7967Z" fill="white"/>
<mask id="mask0_57_223" style="mask-type:alpha" maskUnits="userSpaceOnUse" x="7" y="15" width="26" height="28">
<path fill-rule="evenodd" clip-rule="evenodd" d="M23.438 15.7967C21.7638 15.5462 19.8828 15.6032 17.8046 16.0354C10.961 17.4589 4.41088 26.031 8.03084 33.1696C13.0372 43.0423 24.9631 38.8269 24.9631 38.8269L26.2738 43C26.2738 43 28.7399 40.4331 30.4345 37.0552C31.2275 35.7403 31.8365 34.3732 32.2673 32.9944C28.731 31.8388 21.97 28.552 22.1641 20.3433C22.204 18.6564 22.668 17.1325 23.438 15.7967Z" fill="#E5E5E5"/>
</mask>
<g mask="url(#mask0_57_223)">
<path fill-rule="evenodd" clip-rule="evenodd" d="M15.2529 31.8235L14.6406 32.0218L13.5107 28.4245L14.123 28.2262C14.2914 28.1717 14.4754 28.2742 14.5319 28.4541L15.4563 31.3973C15.5128 31.5772 15.4213 31.769 15.2529 31.8235ZM19.9503 27.4489C19.9791 27.5405 19.9885 27.6347 19.9805 27.7274L19.7978 30.0023C19.7492 30.2342 19.5851 30.4207 19.3708 30.4901L16.8878 31.2941C16.4929 31.422 16.0635 31.1827 15.9321 30.7641L15.1268 28.2002C15.0723 28.0269 15.0842 27.8393 15.1615 27.6773L16.4656 24.9456L16.6548 25.0537C16.802 25.1357 16.9329 25.2411 17.0495 25.3654C17.1007 25.4209 17.1345 25.4964 17.1418 25.5733L17.3377 27.1852L19.0216 26.64C19.3584 26.5309 19.7264 26.736 19.8394 27.0957L19.9503 27.4489ZM24.6393 27.3429L25.2516 27.1446L26.3815 30.742L25.7691 30.9402C25.6007 30.9948 25.4167 30.8922 25.3603 30.7124L24.4358 27.7691C24.3793 27.5892 24.4709 27.3975 24.6393 27.3429ZM19.9418 31.7175C19.9131 31.6259 19.9037 31.5317 19.9117 31.439L20.0975 29.1631C20.146 28.9312 20.307 28.7457 20.5244 28.6754L23.0043 27.8723C23.3993 27.7444 23.8286 27.9837 23.9611 28.4056L24.7654 30.9662C24.8198 31.1396 24.8079 31.3272 24.7306 31.4891L23.4265 34.2208L23.2374 34.1127C23.0902 34.0307 22.9593 33.9254 22.8427 33.801C22.7915 33.7455 22.7577 33.67 22.7504 33.5931L22.5544 31.9812L20.8705 32.5265C20.5337 32.6355 20.1657 32.4304 20.0528 32.0707L19.9418 31.7175Z" fill="#CD2028"/>
</g>
<path d="M29.0424 22.0549L30.8472 23.4409L30.606 21.2545L32.5163 20.0626L30.2698 19.573L29.6432 17.4572L28.495 19.3339L26.2004 19.2117L27.7385 20.8681L26.944 22.9151L29.0424 22.0549Z" fill="#CD2028"/>
<path d="M35.9899 22.991L37.7948 24.377L37.5535 22.1905L39.4638 20.9986L37.2173 20.5091L36.5908 18.3932L35.4425 20.2699L33.1479 20.1477L34.686 21.8042L33.8915 23.8511L35.9899 22.991Z" fill="#CD2028"/>
<path d="M42.9374 23.927L44.7423 25.313L44.501 23.1265L46.4113 21.9347L44.1648 21.4451L43.5383 19.3293L42.39 21.206L40.0954 21.0837L41.6336 22.7402L40.839 24.7871L42.9374 23.927Z" fill="#CD2028"/>
<path d="M58.046 30.112C57.3647 30.112 56.758 29.9953 56.226 29.762C55.694 29.5287 55.274 29.2113 54.966 28.81C54.658 28.3993 54.4853 27.942 54.448 27.438H56.814C56.842 27.7087 56.968 27.928 57.192 28.096C57.416 28.264 57.6913 28.348 58.018 28.348C58.3167 28.348 58.5453 28.292 58.704 28.18C58.872 28.0587 58.956 27.9047 58.956 27.718C58.956 27.494 58.8393 27.3307 58.606 27.228C58.3727 27.116 57.9947 26.9947 57.472 26.864C56.912 26.7333 56.4453 26.598 56.072 26.458C55.6987 26.3087 55.3767 26.08 55.106 25.772C54.8353 25.4547 54.7 25.03 54.7 24.498C54.7 24.05 54.8213 23.644 55.064 23.28C55.316 22.9067 55.68 22.6127 56.156 22.398C56.6413 22.1833 57.2153 22.076 57.878 22.076C58.858 22.076 59.628 22.3187 60.188 22.804C60.7573 23.2893 61.084 23.9333 61.168 24.736H58.956C58.9187 24.4653 58.7973 24.2507 58.592 24.092C58.396 23.9333 58.1347 23.854 57.808 23.854C57.528 23.854 57.3133 23.91 57.164 24.022C57.0147 24.1247 56.94 24.2693 56.94 24.456C56.94 24.68 57.0567 24.848 57.29 24.96C57.5327 25.072 57.906 25.184 58.41 25.296C58.9887 25.4453 59.46 25.5947 59.824 25.744C60.188 25.884 60.5053 26.1173 60.776 26.444C61.056 26.7613 61.2007 27.1907 61.21 27.732C61.21 28.1893 61.0793 28.6 60.818 28.964C60.566 29.3187 60.1973 29.5987 59.712 29.804C59.236 30.0093 58.6807 30.112 58.046 30.112ZM64.8586 21.376C64.4386 21.376 64.0933 21.2547 63.8226 21.012C63.5613 20.76 63.4306 20.452 63.4306 20.088C63.4306 19.7147 63.5613 19.4067 63.8226 19.164C64.0933 18.912 64.4386 18.786 64.8586 18.786C65.2693 18.786 65.6053 18.912 65.8666 19.164C66.1373 19.4067 66.2726 19.7147 66.2726 20.088C66.2726 20.452 66.1373 20.76 65.8666 21.012C65.6053 21.2547 65.2693 21.376 64.8586 21.376ZM66.0486 22.188V30H63.6546V22.188H66.0486ZM79.1083 20.172V22.09H75.1043V24.162H78.1003V26.024H75.1043V30H72.7103V20.172H79.1083ZM88.7106 25.968C88.7106 26.192 88.6966 26.4253 88.6686 26.668H83.2506C83.2879 27.1533 83.4419 27.5267 83.7126 27.788C83.9926 28.04 84.3333 28.166 84.7346 28.166C85.3319 28.166 85.7473 27.914 85.9806 27.41H88.5286C88.3979 27.9233 88.1599 28.3853 87.8146 28.796C87.4786 29.2067 87.0539 29.5287 86.5406 29.762C86.0273 29.9953 85.4533 30.112 84.8186 30.112C84.0533 30.112 83.3719 29.9487 82.7746 29.622C82.1773 29.2953 81.7106 28.8287 81.3746 28.222C81.0386 27.6153 80.8706 26.906 80.8706 26.094C80.8706 25.282 81.0339 24.5727 81.3606 23.966C81.6966 23.3593 82.1633 22.8927 82.7606 22.566C83.3579 22.2393 84.0439 22.076 84.8186 22.076C85.5746 22.076 86.2466 22.2347 86.8346 22.552C87.4226 22.8693 87.8799 23.322 88.2066 23.91C88.5426 24.498 88.7106 25.184 88.7106 25.968ZM86.2606 25.338C86.2606 24.9273 86.1206 24.6007 85.8406 24.358C85.5606 24.1153 85.2106 23.994 84.7906 23.994C84.3893 23.994 84.0486 24.1107 83.7686 24.344C83.4979 24.5773 83.3299 24.9087 83.2646 25.338H86.2606ZM98.3175 25.968C98.3175 26.192 98.3035 26.4253 98.2755 26.668H92.8575C92.8949 27.1533 93.0489 27.5267 93.3195 27.788C93.5995 28.04 93.9402 28.166 94.3415 28.166C94.9389 28.166 95.3542 27.914 95.5875 27.41H98.1355C98.0049 27.9233 97.7669 28.3853 97.4215 28.796C97.0855 29.2067 96.6609 29.5287 96.1475 29.762C95.6342 29.9953 95.0602 30.112 94.4255 30.112C93.6602 30.112 92.9789 29.9487 92.3815 29.622C91.7842 29.2953 91.3175 28.8287 90.9815 28.222C90.6455 27.6153 90.4775 26.906 90.4775 26.094C90.4775 25.282 90.6409 24.5727 90.9675 23.966C91.3035 23.3593 91.7702 22.8927 92.3675 22.566C92.9649 22.2393 93.6509 22.076 94.4255 22.076C95.1815 22.076 95.8535 22.2347 96.4415 22.552C97.0295 22.8693 97.4869 23.322 97.8135 23.91C98.1495 24.498 98.3175 25.184 98.3175 25.968ZM95.8675 25.338C95.8675 24.9273 95.7275 24.6007 95.4475 24.358C95.1675 24.1153 94.8175 23.994 94.3975 23.994C93.9962 23.994 93.6555 24.1107 93.3755 24.344C93.1049 24.5773 92.9369 24.9087 92.8715 25.338H95.8675ZM100.085 26.08C100.085 25.2773 100.234 24.5727 100.533 23.966C100.841 23.3593 101.256 22.8927 101.779 22.566C102.301 22.2393 102.885 22.076 103.529 22.076C104.042 22.076 104.509 22.1833 104.929 22.398C105.358 22.6127 105.694 22.902 105.937 23.266V19.64H108.331V30H105.937V28.88C105.713 29.2533 105.391 29.552 104.971 29.776C104.56 30 104.079 30.112 103.529 30.112C102.885 30.112 102.301 29.9487 101.779 29.622C101.256 29.286 100.841 28.8147 100.533 28.208C100.234 27.592 100.085 26.8827 100.085 26.08ZM105.937 26.094C105.937 25.4967 105.769 25.0253 105.433 24.68C105.106 24.3347 104.705 24.162 104.229 24.162C103.753 24.162 103.347 24.3347 103.011 24.68C102.684 25.016 102.521 25.4827 102.521 26.08C102.521 26.6773 102.684 27.1533 103.011 27.508C103.347 27.8533 103.753 28.026 104.229 28.026C104.705 28.026 105.106 27.8533 105.433 27.508C105.769 27.1627 105.937 26.6913 105.937 26.094ZM116.992 24.96C117.562 25.0813 118.019 25.366 118.364 25.814C118.71 26.2527 118.882 26.7567 118.882 27.326C118.882 28.1473 118.593 28.8007 118.014 29.286C117.445 29.762 116.647 30 115.62 30H111.042V20.172H115.466C116.465 20.172 117.244 20.4007 117.804 20.858C118.374 21.3153 118.658 21.936 118.658 22.72C118.658 23.2987 118.504 23.7793 118.196 24.162C117.898 24.5447 117.496 24.8107 116.992 24.96ZM113.436 24.148H115.004C115.396 24.148 115.695 24.064 115.9 23.896C116.115 23.7187 116.222 23.462 116.222 23.126C116.222 22.79 116.115 22.5333 115.9 22.356C115.695 22.1787 115.396 22.09 115.004 22.09H113.436V24.148ZM115.2 28.068C115.602 28.068 115.91 27.9793 116.124 27.802C116.348 27.6153 116.46 27.3493 116.46 27.004C116.46 26.6587 116.344 26.388 116.11 26.192C115.886 25.996 115.574 25.898 115.172 25.898H113.436V28.068H115.2ZM120.775 26.08C120.775 25.2773 120.924 24.5727 121.223 23.966C121.531 23.3593 121.946 22.8927 122.469 22.566C122.992 22.2393 123.575 22.076 124.219 22.076C124.77 22.076 125.25 22.188 125.661 22.412C126.081 22.636 126.403 22.93 126.627 23.294V22.188H129.021V30H126.627V28.894C126.394 29.258 126.067 29.552 125.647 29.776C125.236 30 124.756 30.112 124.205 30.112C123.57 30.112 122.992 29.9487 122.469 29.622C121.946 29.286 121.531 28.8147 121.223 28.208C120.924 27.592 120.775 26.8827 120.775 26.08ZM126.627 26.094C126.627 25.4967 126.459 25.0253 126.123 24.68C125.796 24.3347 125.395 24.162 124.919 24.162C124.443 24.162 124.037 24.3347 123.701 24.68C123.374 25.016 123.211 25.4827 123.211 26.08C123.211 26.6773 123.374 27.1533 123.701 27.508C124.037 27.8533 124.443 28.026 124.919 28.026C125.395 28.026 125.796 27.8533 126.123 27.508C126.459 27.1627 126.627 26.6913 126.627 26.094ZM131.257 26.094C131.257 25.282 131.42 24.5727 131.747 23.966C132.083 23.3593 132.545 22.8927 133.133 22.566C133.73 22.2393 134.412 22.076 135.177 22.076C136.157 22.076 136.974 22.3327 137.627 22.846C138.29 23.3593 138.724 24.0827 138.929 25.016H136.381C136.166 24.4187 135.751 24.12 135.135 24.12C134.696 24.12 134.346 24.2927 134.085 24.638C133.824 24.974 133.693 25.4593 133.693 26.094C133.693 26.7287 133.824 27.2187 134.085 27.564C134.346 27.9 134.696 28.068 135.135 28.068C135.751 28.068 136.166 27.7693 136.381 27.172H138.929C138.724 28.0867 138.29 28.8053 137.627 29.328C136.964 29.8507 136.148 30.112 135.177 30.112C134.412 30.112 133.73 29.9487 133.133 29.622C132.545 29.2953 132.083 28.8287 131.747 28.222C131.42 27.6153 131.257 26.906 131.257 26.094ZM145.963 30L143.583 26.724V30H141.189V19.64H143.583V25.366L145.949 22.188H148.903L145.655 26.108L148.931 30H145.963ZM151.37 20.172H153.82L152.252 23.924H150.642L151.37 20.172ZM159.384 30.112C158.703 30.112 158.096 29.9953 157.564 29.762C157.032 29.5287 156.612 29.2113 156.304 28.81C155.996 28.3993 155.823 27.942 155.786 27.438H158.152C158.18 27.7087 158.306 27.928 158.53 28.096C158.754 28.264 159.029 28.348 159.356 28.348C159.655 28.348 159.883 28.292 160.042 28.18C160.21 28.0587 160.294 27.9047 160.294 27.718C160.294 27.494 160.177 27.3307 159.944 27.228C159.711 27.116 159.333 26.9947 158.81 26.864C158.25 26.7333 157.783 26.598 157.41 26.458C157.037 26.3087 156.715 26.08 156.444 25.772C156.173 25.4547 156.038 25.03 156.038 24.498C156.038 24.05 156.159 23.644 156.402 23.28C156.654 22.9067 157.018 22.6127 157.494 22.398C157.979 22.1833 158.553 22.076 159.216 22.076C160.196 22.076 160.966 22.3187 161.526 22.804C162.095 23.2893 162.422 23.9333 162.506 24.736H160.294C160.257 24.4653 160.135 24.2507 159.93 24.092C159.734 23.9333 159.473 23.854 159.146 23.854C158.866 23.854 158.651 23.91 158.502 24.022C158.353 24.1247 158.278 24.2693 158.278 24.456C158.278 24.68 158.395 24.848 158.628 24.96C158.871 25.072 159.244 25.184 159.748 25.296C160.327 25.4453 160.798 25.5947 161.162 25.744C161.526 25.884 161.843 26.1173 162.114 26.444C162.394 26.7613 162.539 27.1907 162.548 27.732C162.548 28.1893 162.417 28.6 162.156 28.964C161.904 29.3187 161.535 29.5987 161.05 29.804C160.574 30.0093 160.019 30.112 159.384 30.112Z" fill="white"/>
</svg>
